<svg width="19" height="21" viewBox="0 0 19 21" fill="none" xmlns="http://www.w3.org/2000/svg">
    <rect x="0.75" y="0.75" width="17.5" height="17.5" rx="1.25" stroke="#F0BE5F" stroke-width="1.5"/>
    <path d="M8.6 6.915H10.58V12.105C10.58 12.615 10.64 13.01 10.76 13.29C10.88 13.57 11.07 13.815 11.33 14.025L9.68 15.18C8.96 14.61 8.6 13.8 8.6 12.75V6.915ZM9.62 3.78C9.73 3.78 9.975 3.945 10.355 4.275C10.735 4.595 10.925 4.815 10.925 4.935C10.925 5.045 10.73 5.265 10.34 5.595C9.96 5.925 9.715 6.09 9.605 6.09C9.505 6.09 9.265 5.93 8.885 5.61C8.505 5.28 8.315 5.06 8.315 4.95C8.315 4.83 8.505 4.605 8.885 4.275C9.275 3.945 9.52 3.78 9.62 3.78Z"
          fill="#F0BE5F"/>
</svg>
