<svg width="19" height="24" viewBox="0 0 19 24" fill="none" xmlns="http://www.w3.org/2000/svg">
<path d="M18.15 22.7502V22.7504C18.1497 22.9638 17.9639 23.1502 17.7499 23.1502H3.00003C1.81349 23.1502 0.85 22.1868 0.85 21.0002V3.50033C0.85 2.08835 2.088 0.850349 3.49998 0.850349L17.748 0.850032C17.7483 0.850027 17.7487 0.850023 17.7491 0.850019L17.7499 0.850019L17.7499 1.00002C17.8821 0.998278 18 1.11808 18 1.25009C18 1.38228 17.8819 1.5019 17.7499 1.50016L18.15 22.7502ZM18.15 22.7502V5.75029C18.15 5.53649 17.9637 5.35022 17.7499 5.35022C17.2843 5.35022 16.8208 5.12795 16.4715 4.77866C16.1222 4.42937 15.8999 3.96584 15.8999 3.50019C15.8999 3.03454 16.1222 2.57101 16.4715 2.22172C16.8205 1.87263 17.2837 1.65043 17.7491 1.65016L18.15 22.7502ZM14.1499 12.2502V6.15027H17.3498V22.3502H2.9999C2.24743 22.3502 1.64982 21.7525 1.64982 21.0001L1.64995 5.36127C2.13417 5.84181 2.7947 6.15009 3.49998 6.15009H8.34995L8.34994 12.25L8.34996 12.2521C8.35213 12.4115 8.45788 12.5309 8.57132 12.5899C8.68476 12.6489 8.84316 12.6669 8.97495 12.5772L8.97496 12.5772L8.97648 12.5762L11.2498 10.9879L13.5234 12.5763L13.5234 12.5764L13.5249 12.5774C13.6567 12.6671 13.8151 12.649 13.9285 12.59C14.0419 12.531 14.1476 12.4117 14.1499 12.2524L14.1499 12.2524V12.2502ZM11.0232 10.1663L9.14987 11.4777L9.1499 6.15009H13.3499V11.4776L11.4765 10.1663L11.4765 10.1663L11.4749 10.1651C11.3416 10.0745 11.1581 10.0745 11.0249 10.1651L11.0249 10.1651L11.0232 10.1663ZM3.49998 1.6503H15.889C15.4085 2.13452 15.1002 2.79505 15.1002 3.50033C15.1002 4.20563 15.4086 4.86616 15.8891 5.35036H3.49998C3.03433 5.35036 2.5708 5.1281 2.22151 4.7788C1.87222 4.42951 1.64995 3.96598 1.64995 3.50033C1.64995 3.03468 1.87222 2.57115 2.22151 2.22186C2.5708 1.87257 3.03433 1.6503 3.49998 1.6503Z" fill="#F0BE5F" stroke="#F0BE5F" stroke-width="0.3"/>
</svg>
