<svg width="18" height="23" viewBox="0 0 18 23" fill="none" xmlns="http://www.w3.org/2000/svg">
<g clip-path="url(#clip0_1199_7967)">
<path d="M17.568 4.63377C16.6071 4.63377 15.6636 3.69814 15.6636 2.74538C15.6636 1.79261 16.6071 0.856986 17.5645 0.856986C17.6717 0.856986 17.7857 0.812433 17.8687 0.733607C17.9516 0.651354 18 0.541683 18 0.428585C18 0.315487 17.9516 0.205817 17.8687 0.123564C17.7857 0.0413106 17.6751 -0.00324314 17.568 0.000184072H2.76843C1.29263 0.000184072 0 1.28539 0 2.74538V20.7691C0 21.9994 1.00922 23.0002 2.25 23.0002H17.568C17.7995 23.0002 18 22.8014 18 22.5718V5.06217C18 4.83255 17.7995 4.63377 17.568 4.63377ZM14.7995 2.74538C14.7995 3.43767 15.0899 4.11626 15.5945 4.63377H2.76843C1.8076 4.63377 0.864055 3.69814 0.864055 2.74538C0.864055 1.79261 1.8076 0.856986 2.76843 0.856986H15.5945C15.0899 1.37449 14.7995 2.05308 14.7995 2.74538ZM12.9816 10.9296L11.0599 9.59637C10.9182 9.50041 10.7177 9.50041 10.5726 9.59637L8.65438 10.9296V5.494H12.9816V10.9296ZM2.76843 5.49057H7.78687V11.7589C7.78687 11.9063 7.88018 12.0468 8.02535 12.1222C8.17051 12.1976 8.33986 12.1908 8.46429 12.1085L10.8145 10.4806L13.1682 12.1119C13.2926 12.1942 13.4585 12.201 13.6037 12.1257C13.7488 12.0503 13.8422 11.9132 13.8422 11.7624V5.494H17.1325V22.1434H2.25C1.47235 22.1434 0.864055 21.5402 0.864055 20.7691V4.70574C1.38594 5.20611 2.07028 5.494 2.76843 5.494V5.49057Z" fill="#F0BE5F"/>
</g>
<defs>
<clipPath id="clip0_1199_7967">
<rect width="18" height="23" fill="white"/>
</clipPath>
</defs>
</svg>
