<svg width="18" height="18" viewBox="0 0 18 18" fill="none" xmlns="http://www.w3.org/2000/svg">
<path d="M1.83886 17.9998H5.19697C5.69804 17.9998 6.17841 17.805 6.53274 17.4582C6.88693 17.1113 7.08594 16.641 7.08594 16.1504V14.2352C7.07582 13.7522 7.24855 13.2826 7.57095 12.917C7.89337 12.5512 8.34255 12.3152 8.83224 12.2544C9.35594 12.2154 9.87258 12.3918 10.2581 12.7412C10.6435 13.0906 10.863 13.5813 10.8639 14.0955V16.1504C10.8639 16.6409 11.0629 17.1113 11.4171 17.4582C11.7714 17.8049 12.2518 17.9998 12.7528 17.9998H16.1109C16.612 17.9998 17.0924 17.8049 17.4467 17.4582C17.8009 17.1113 17.9999 16.6409 17.9999 16.1504V7.51978C18.006 6.83712 17.6976 6.18803 17.1604 5.75266L10.444 0.492222V0.492085C10.0332 0.17339 9.52425 0 8.99998 0C8.47575 0 7.96695 0.173383 7.55599 0.492085L0.839544 5.76097C0.303761 6.19388 -0.0045898 6.83994 5.16571e-05 7.51999V16.1506C-8.8882e-05 16.6328 0.192039 17.0958 0.535402 17.4412C0.878762 17.7867 1.34651 17.9872 1.83872 18L1.83886 17.9998ZM1.20921 7.51982C1.20049 7.20016 1.3468 6.89535 1.60373 6.6979L8.32017 1.43747C8.50668 1.2934 8.73747 1.2151 8.97498 1.2151C9.21248 1.2151 9.4433 1.2934 9.62978 1.43747L16.3462 6.6898V6.68966C16.5989 6.89043 16.7442 7.19302 16.7407 7.51172V16.1504C16.7386 16.3133 16.6716 16.4688 16.554 16.584C16.4363 16.6992 16.2775 16.7648 16.1111 16.7669H12.753C12.5867 16.7648 12.4277 16.6992 12.3101 16.584C12.1924 16.4688 12.1254 16.3134 12.1233 16.1504V14.0956C12.121 13.2787 11.7887 12.496 11.1988 11.9184C10.6088 11.3408 9.80933 11.0154 8.97502 11.0132H8.74832C7.93804 11.0915 7.18753 11.4657 6.64613 12.0612C6.10474 12.6567 5.81225 13.4299 5.82675 14.2271V16.1504C5.82464 16.3133 5.7576 16.4688 5.63996 16.584C5.52233 16.6992 5.36336 16.7648 5.19708 16.7669H1.83897C1.67256 16.7648 1.51374 16.6992 1.39609 16.584C1.27843 16.4688 1.21141 16.3134 1.2093 16.1504L1.20921 7.51982Z" fill="#F0BE5F"/>
</svg>
