<svg width="24" height="22" viewBox="0 0 24 22" fill="none" xmlns="http://www.w3.org/2000/svg">
    <path d="M9.81807 2.18164C8.37148 2.18164 6.98402 2.75638 5.96111 3.7793C4.93819 4.80221 4.36364 6.18967 4.36364 7.63626C4.36364 9.08286 4.93819 10.4703 5.96111 11.4932C6.98402 12.5161 8.37148 13.0909 9.81807 13.0909C11.2647 13.0909 12.6521 12.5161 13.675 11.4932C14.698 10.4703 15.2727 9.08286 15.2727 7.63626C15.2711 6.19018 14.6958 4.80366 13.6732 3.78112C12.6507 2.75858 11.2643 2.18346 9.81807 2.18164ZM14.1267 7.09075H13.0588C13.0161 6.02949 12.75 4.98904 12.2783 4.03719C13.3025 4.74433 13.9751 5.85566 14.1267 7.09075ZM9.27274 3.45057V7.09075H7.66667C7.78848 5.24964 8.49598 3.89908 9.27274 3.45057ZM9.27274 8.18202V11.8222C8.49603 11.3736 7.78851 10.0231 7.66667 8.18202H9.27274ZM10.3636 11.8224V8.18202H11.9697C11.8477 10.0231 11.1404 11.3737 10.3636 11.8222V11.8224ZM10.3636 7.09093V3.45076C11.1403 3.8993 11.8476 5.25002 11.9697 7.09112L10.3636 7.09093ZM7.35786 4.03738C6.88612 4.98923 6.62024 6.02968 6.5775 7.09093H5.50965C5.66106 5.8558 6.33387 4.74447 7.35786 4.03738ZM5.50965 8.18197H6.5775C6.62024 9.24322 6.88615 10.2837 7.35786 11.2355C6.33387 10.5284 5.66104 9.41705 5.50965 8.18197ZM12.2781 11.2355C12.7499 10.2837 13.016 9.24322 13.0587 8.18197H14.1265C13.975 9.4171 13.3023 10.5284 12.2781 11.2355Z"
          fill="#F0BE5F"/>
    <path d="M19.6363 12.5454V2.72722C19.6356 2.00418 19.3479 1.31092 18.8366 0.799717C18.3254 0.288328 17.6321 0.000701301 16.9091 0H2.72736C2.00432 0.000730522 1.31106 0.288375 0.799717 0.799717C0.288515 1.31092 0.000888314 2.00418 0 2.72722V12.5454C0.00091314 13.2685 0.288557 13.9617 0.799717 14.4729C1.31111 14.9843 2.00436 15.2719 2.72736 15.2726H6.54543V18.0001C6.54543 18.2066 6.66195 18.3956 6.84677 18.4881C7.03159 18.5805 7.25275 18.5604 7.41805 18.4364L11.6363 15.2727H16.9091C17.6322 15.2719 18.3254 14.9843 18.8366 14.473C19.348 13.9618 19.6356 13.2685 19.6363 12.5455L19.6363 12.5454ZM11.4544 14.1818C11.3365 14.1818 11.2218 14.22 11.1275 14.2908L7.63636 16.909V14.7273C7.63636 14.5825 7.57901 14.4437 7.47656 14.3414C7.37428 14.2391 7.23549 14.1818 7.09084 14.1818H2.72726C2.29333 14.1813 1.87747 14.0088 1.57067 13.702C1.26388 13.3952 1.09126 12.9793 1.09089 12.5454V2.72722C1.09125 2.29329 1.26384 1.87743 1.57067 1.57063C1.8775 1.26384 2.29334 1.09141 2.72726 1.09085H16.909C17.3429 1.0914 17.7587 1.2638 18.0655 1.57063C18.3723 1.87747 18.5448 2.2933 18.5453 2.72722V12.5454C18.5448 12.9794 18.3724 13.3952 18.0655 13.702C17.7587 14.0088 17.3429 14.1812 16.909 14.1818H11.4544Z"
          fill="#F0BE5F"/>
    <path d="M21.2727 3.27247C20.9715 3.27247 20.7273 3.51665 20.7273 3.8178C20.7273 4.11914 20.9715 4.36332 21.2727 4.36332C21.7066 4.36387 22.1224 4.53627 22.4292 4.8431C22.736 5.14994 22.9086 5.56577 22.909 5.99969V15.8179C22.9087 16.2518 22.7361 16.6677 22.4292 16.9745C22.1224 17.2813 21.7066 17.4537 21.2727 17.4543H16.9091C16.7644 17.4543 16.6256 17.5116 16.5233 17.6139C16.4209 17.7162 16.3635 17.855 16.3635 17.9998V20.1817L12.8724 17.5633C12.7568 17.4765 12.6112 17.4395 12.468 17.4599C12.325 17.4804 12.1957 17.5569 12.109 17.6727C11.9284 17.9136 11.9773 18.2555 12.2184 18.4361L16.582 21.7088C16.6762 21.7799 16.7911 21.8182 16.9091 21.8179C17.0537 21.818 17.1925 21.7605 17.2948 21.6582C17.397 21.556 17.4546 21.4172 17.4546 21.2725V18.5451H21.2726C21.9957 18.5444 22.6889 18.2567 23.2003 17.7454C23.7115 17.2342 23.9991 16.5409 24 15.8179V5.99968C23.9991 5.27664 23.7114 4.58338 23.2003 4.07218C22.6889 3.56079 21.9956 3.27317 21.2727 3.27247Z"
          fill="#F0BE5F"/>
</svg>
