<svg width="29" height="29" viewBox="0 0 29 29" fill="none" xmlns="http://www.w3.org/2000/svg">
<path d="M26.8677 22.0705C28.2655 19.7933 29.0036 17.1726 29 14.5005V14.5001C29.0036 11.8281 28.2656 9.20746 26.8677 6.93013L26.8598 6.91763C25.1232 4.08743 22.468 1.93893 19.3379 0.830846C16.2077 -0.276949 12.7919 -0.276949 9.66204 0.830846C6.53216 1.93864 3.87651 4.0872 2.14022 6.91763L2.13226 6.93013C0.737811 9.20891 0 11.8287 0 14.5001C0 17.1715 0.737811 19.7911 2.13226 22.07L2.14044 22.0827V22.083C3.87674 24.9129 6.53198 27.0614 9.66227 28.1692C12.7926 29.2769 16.2083 29.277 19.3382 28.1692C22.4685 27.0614 25.1237 24.9128 26.86 22.0824L26.8677 22.0705ZM16.3533 26.5153V26.5151C16.0772 26.7817 15.7592 27.0015 15.4119 27.1654C14.8348 27.4397 14.1652 27.4397 13.5881 27.1654C12.9274 26.8281 12.3618 26.3303 11.9431 25.718C11.0878 24.4823 10.4541 23.1074 10.0702 21.6546C11.5454 21.5639 13.0219 21.5175 14.4999 21.5159C15.9773 21.5159 17.4541 21.5621 18.9299 21.6546C18.7173 22.4014 18.4519 23.1324 18.1355 23.8418C17.7189 24.8391 17.1138 25.7469 16.3533 26.5153L16.3533 26.5153ZM1.65765 15.3152H7.50602C7.54421 16.9471 7.72104 18.5729 8.03493 20.1748C6.43613 20.3155 4.84146 20.5087 3.25086 20.7544H3.25063C2.31918 19.0834 1.77484 17.2247 1.65753 15.3152L1.65765 15.3152ZM3.25099 8.2468C4.84089 8.49319 6.43602 8.68638 8.03663 8.82661C7.72229 10.4283 7.545 12.0541 7.50681 13.686H1.65786C1.77514 11.7766 2.3195 9.91782 3.25096 8.24685L3.25099 8.2468ZM12.6464 2.48574C12.9228 2.21913 13.2408 1.99957 13.5881 1.83546C14.1652 1.56135 14.8348 1.56135 15.4119 1.83546C16.0727 2.17298 16.6382 2.67071 17.0569 3.28305C17.9119 4.5188 18.5459 5.89367 18.9298 7.3465C17.4547 7.43719 15.9782 7.48356 14.5001 7.48514C13.0227 7.48514 11.5459 7.43878 10.0701 7.3465C10.2827 6.5994 10.5481 5.8687 10.8645 5.15931C11.2811 4.16195 11.8862 3.2542 12.6465 2.48574H12.6464ZM27.3427 13.6859H21.4943C21.4562 12.0539 21.2793 10.4282 20.9654 8.82622C22.5642 8.68552 24.1589 8.49233 25.7495 8.24664H25.7497C26.6812 9.91767 27.2255 11.7764 27.3428 13.6858L27.3427 13.6859ZM9.67366 20.0479C9.355 18.4891 9.17498 16.9052 9.13589 15.3148H19.865C19.8261 16.9052 19.6465 18.4891 19.3281 20.0479C17.7207 19.9424 16.1115 19.8886 14.5004 19.8865C12.8905 19.8865 11.2817 19.9401 9.67385 20.0479H9.67366ZM19.3269 8.95248C19.6455 10.5112 19.8253 12.095 19.8646 13.6855H9.13556C9.17443 12.0952 9.35399 10.5112 9.67243 8.95248C11.2798 9.05794 12.8891 9.11181 14.5001 9.11385C16.1101 9.11385 17.7188 9.05998 19.3267 8.95248H19.3269ZM21.4936 15.3145H27.3426C27.2253 17.2239 26.6809 19.0827 25.7495 20.7537C24.1596 20.5073 22.5642 20.3141 20.9636 20.1739C21.278 18.5722 21.4552 16.9464 21.4934 15.3144L21.4936 15.3145ZM24.7728 6.74667C23.3826 6.94713 21.9882 7.10601 20.5896 7.22306C20.3383 6.28732 20.0141 5.3727 19.6203 4.48741C19.2604 3.67281 18.8077 2.90255 18.2712 2.19181C20.8642 2.98686 23.1396 4.58103 24.7725 6.74664L24.7728 6.74667ZM5.39884 5.39909C6.88645 3.91035 8.71643 2.80913 10.7284 2.19208C10.698 2.23162 10.6666 2.26935 10.6364 2.30981V2.30958C9.60221 3.79832 8.84892 5.46364 8.41368 7.22329C7.01516 7.10487 5.61978 6.946 4.22765 6.74667C4.58678 6.27118 4.97815 5.82094 5.3989 5.39909L5.39884 5.39909ZM4.2276 22.2531C5.61774 22.0524 7.01213 21.8938 8.41071 21.7767V21.7769C8.66187 22.7127 8.98622 23.6273 9.38011 24.5126C9.73991 25.3272 10.1925 26.0975 10.7291 26.8082C8.13619 26.0129 5.86073 24.4187 4.22789 22.2534L4.2276 22.2531ZM23.6009 23.6007L23.6012 23.6009C22.1136 25.0897 20.2836 26.1909 18.2716 26.8079C18.302 26.7684 18.3334 26.7307 18.3636 26.6902V26.6904C19.3978 25.2017 20.1511 23.5364 20.5863 21.7767C21.9848 21.8951 23.3802 22.054 24.7723 22.2533C24.4132 22.7288 24.0219 23.1791 23.6011 23.6009L23.6009 23.6007Z" fill="#F0BE5F"/>
</svg>
