<svg width="31" height="31" viewBox="0 0 31 31" fill="none" xmlns="http://www.w3.org/2000/svg">
<g clip-path="url(#clip0_641_2044)">
<path d="M18.7854 8.54043C19.4425 8.54043 20.0996 8.54043 20.7323 8.54043H21V5.14551C20.6593 5.12126 20.2942 5.07277 19.9292 5.04852C19.2721 5.02427 18.5907 4.97577 17.9093 5.00002C16.8872 5.00002 15.9137 5.26676 15.0619 5.873C14.0885 6.57623 13.5531 7.54621 13.3584 8.68593C13.2854 9.17092 13.2611 9.65591 13.2367 10.1409C13.2367 10.8926 13.2367 11.6686 13.2367 12.4203V12.7113H10V16.4942H13.2367V26H17.1792V16.5185H20.3916C20.5619 15.2575 20.708 14.0208 20.8783 12.7113H20.1482C19.2235 12.7113 17.1305 12.7113 17.1305 12.7113C17.1305 12.7113 17.1305 10.8441 17.1549 10.0196C17.1792 8.90417 17.8606 8.56468 18.7367 8.54043" fill="#F0BE5F"/>
</g>
<defs>
<clipPath id="clip0_641_2044">
<rect width="11" height="21" fill="white" transform="translate(10 5)"/>
</clipPath>
</defs>
</svg>
