<svg width="31" height="31" viewBox="0 0 31 31" fill="none" xmlns="http://www.w3.org/2000/svg">
<g clip-path="url(#clip0_641_2048)">
<path d="M21.884 11.2127C21.884 11.8045 21.3966 12.292 20.8047 12.292C20.2128 12.292 19.7254 11.8045 19.7254 11.2127C19.7254 10.6208 20.2128 10.1334 20.8047 10.1334C21.3966 10.1334 21.884 10.6208 21.884 11.2127ZM15.9826 18.9941C14.3289 18.9941 13.0058 17.6363 13.0233 15.9825C13.0233 14.3287 14.3811 13.0057 16.0349 13.0231C17.6886 13.0231 19.0116 14.3809 18.9942 16.0347C18.9942 17.6885 17.6364 19.0115 15.9826 18.9941ZM16.0175 11.3867C13.4759 11.3867 11.4043 13.4583 11.4043 15.9999C11.4043 18.5415 13.4759 20.613 16.0175 20.613C18.5764 20.613 20.6306 18.5415 20.6306 15.9999C20.6306 13.4583 18.559 11.3867 16.0175 11.3867M23.207 20.5086C22.9633 22.0753 21.9188 23.0502 20.3347 23.2243C18.8898 23.3809 12.3966 23.468 11.0561 23.1024C9.76793 22.7368 9.03679 21.849 8.81049 20.5608C8.60159 19.3248 8.54937 13.1276 8.81049 11.4738C9.0542 9.92446 10.0987 8.9496 11.6654 8.75811C13.267 8.58403 18.9942 8.56662 20.5262 8.79293C22.0929 9.03664 23.0677 10.0811 23.2418 11.6653C23.3985 13.145 23.4507 18.9245 23.207 20.5086ZM24.8608 11.5086C24.7389 10.3248 24.2863 9.28036 23.3985 8.44477C22.4759 7.55695 21.3443 7.17397 20.091 7.10434C17.9846 6.99989 12.9536 6.91285 11.1954 7.20879C9.17606 7.52213 7.85304 8.70589 7.29598 10.6904C6.87819 12.2223 6.96523 19.29 7.20894 20.8045C7.5571 22.8761 8.77567 24.1991 10.8298 24.7388C12.2573 25.1043 19.238 25.0521 20.7873 24.8084C22.8588 24.4776 24.1993 23.2591 24.7389 21.2049C25.1567 19.6382 25 12.9361 24.8608 11.526" fill="#F0BE5F"/>
</g>
<defs>
<clipPath id="clip0_641_2048">
<rect width="18" height="18" fill="white" transform="translate(7 7)"/>
</clipPath>
</defs>
</svg>
