<svg width="42" height="28" viewBox="0 0 42 28" fill="none" xmlns="http://www.w3.org/2000/svg">
<path d="M4.56401 27.125C4.56401 27.125 19.0313 27.0847 25.5045 27.041C29.771 26.3095 30.1998 22.6362 30.156 20.6307C37.772 21.042 43.1445 15.771 41.7918 8.75875C40.439 1.7465 33.2885 0.875 33.2885 0.875H1.26526C0.208262 0.875 0.0770123 2.24525 0.0770123 2.24525C0.0770123 2.24525 -0.0664877 14.8172 0.0385123 22.5382C0.325512 26.6997 4.56401 27.125 4.56401 27.125ZM30.2925 5.90275H33.39C33.39 5.90275 36.8393 6.8495 36.8393 10.4318C36.8393 13.7165 35.1155 15.0097 33.236 15.6082C31.612 15.8077 30.2925 15.6555 30.2925 15.6555V5.90275ZM7.46376 8.3405C9.12801 6.60625 12.7225 6.47675 15.099 9.03875C15.099 9.03875 17.8378 5.97975 21.168 7.385C24.5 8.792 24.374 12.5528 22.4333 14.7858C20.2528 17.2795 15.414 21.6108 15.414 21.6108C15.414 21.6108 15.2023 21.8155 14.8715 21.651C14.7385 21.553 14.6825 21.497 14.6825 21.497C13.9073 20.741 8.78851 16.2628 7.62301 14.7105C6.38226 13.0533 5.80126 10.0747 7.46376 8.3405Z" fill="#432918"/>
</svg>
