<svg width="39" height="37" viewBox="0 0 39 37" fill="none" xmlns="http://www.w3.org/2000/svg">
<path d="M25.0218 0C27.7883 0.0033266 30.4918 0.819483 32.7907 2.34537C35.0896 3.87125 36.8808 6.0384 37.9379 8.57303C38.9951 11.1077 39.2708 13.8961 38.7303 16.586C38.1897 19.2759 36.8571 21.7467 34.9009 23.6861C32.9446 25.6255 30.4525 26.9467 27.7393 27.4826C25.026 28.0185 22.2135 27.7451 19.6569 26.697C17.1003 25.649 14.9144 23.8732 13.3753 21.594C11.8362 19.3149 11.0129 16.6346 11.0096 13.8918C11.0096 10.2075 12.4858 6.67404 15.1136 4.06882C17.7414 1.4636 21.3055 0 25.0218 0ZM0 37H6.78556V0H0V37Z" fill="#432918"/>
</svg>
